<?xml version="1.0" encoding="UTF-8" standalone="no"?>
<!-- Created with Inkscape (http://www.inkscape.org/) -->

<svg
   xmlns:dc="http://purl.org/dc/elements/1.1/"
   xmlns:cc="http://creativecommons.org/ns#"
   xmlns:rdf="http://www.w3.org/1999/02/22-rdf-syntax-ns#"
   xmlns:svg="http://www.w3.org/2000/svg"
   xmlns="http://www.w3.org/2000/svg"
   xmlns:xlink="http://www.w3.org/1999/xlink"
   xmlns:sodipodi="http://sodipodi.sourceforge.net/DTD/sodipodi-0.dtd"
   xmlns:inkscape="http://www.inkscape.org/namespaces/inkscape"
   width="800"
   height="800"
   id="svg2"
   version="1.1"
   inkscape:version="0.47pre4 r22446"
   sodipodi:docname="doc.svg"
   inkscape:export-filename="/home/doli/Desktop/folder.png"
   inkscape:export-xdpi="90"
   inkscape:export-ydpi="90">
  <defs
     id="defs4">
    <linearGradient
       inkscape:collect="always"
       id="linearGradient4096">
      <stop
         style="stop-color:#ffffff;stop-opacity:1;"
         offset="0"
         id="stop4098" />
      <stop
         style="stop-color:#ffffff;stop-opacity:0;"
         offset="1"
         id="stop4100" />
    </linearGradient>
    <inkscape:perspective
       sodipodi:type="inkscape:persp3d"
       inkscape:vp_x="0 : 526.18109 : 1"
       inkscape:vp_y="0 : 1000 : 0"
       inkscape:vp_z="744.09448 : 526.18109 : 1"
       inkscape:persp3d-origin="372.04724 : 350.78739 : 1"
       id="perspective10" />
    <inkscape:perspective
       id="perspective2884"
       inkscape:persp3d-origin="0.5 : 0.33333333 : 1"
       inkscape:vp_z="1 : 0.5 : 1"
       inkscape:vp_y="0 : 1000 : 0"
       inkscape:vp_x="0 : 0.5 : 1"
       sodipodi:type="inkscape:persp3d" />
    <filter
       inkscape:collect="always"
       id="filter3808"
       color-interpolation-filters="sRGB">
      <feGaussianBlur
         inkscape:collect="always"
         stdDeviation="10.301239"
         id="feGaussianBlur3810" />
    </filter>
    <filter
       inkscape:collect="always"
       id="filter3832"
       color-interpolation-filters="sRGB">
      <feGaussianBlur
         inkscape:collect="always"
         stdDeviation="16.538065"
         id="feGaussianBlur3834" />
    </filter>
    <filter
       inkscape:collect="always"
       id="filter3920"
       color-interpolation-filters="sRGB">
      <feGaussianBlur
         inkscape:collect="always"
         stdDeviation="6.5778618"
         id="feGaussianBlur3922" />
    </filter>
    <filter
       inkscape:collect="always"
       id="filter3997"
       color-interpolation-filters="sRGB">
      <feGaussianBlur
         inkscape:collect="always"
         stdDeviation="1.226591"
         id="feGaussianBlur3999" />
    </filter>
    <filter
       inkscape:collect="always"
       id="filter4068"
       x="-0.018255908"
       width="1.0365118"
       y="-1.5836999"
       height="4.1673999"
       color-interpolation-filters="sRGB">
      <feGaussianBlur
         inkscape:collect="always"
         stdDeviation="4.7239967"
         id="feGaussianBlur4070" />
    </filter>
    <filter
       inkscape:collect="always"
       id="filter4084"
       color-interpolation-filters="sRGB">
      <feGaussianBlur
         inkscape:collect="always"
         stdDeviation="5.4696981"
         id="feGaussianBlur4086" />
    </filter>
    <filter
       inkscape:collect="always"
       id="filter4092"
       color-interpolation-filters="sRGB">
      <feGaussianBlur
         inkscape:collect="always"
         stdDeviation="3.5019369"
         id="feGaussianBlur4094" />
    </filter>
    <linearGradient
       inkscape:collect="always"
       xlink:href="#linearGradient4096"
       id="linearGradient4102"
       x1="406.13275"
       y1="906.06885"
       x2="406.13275"
       y2="926.91937"
       gradientUnits="userSpaceOnUse" />
  </defs>
  <sodipodi:namedview
     id="base"
     pagecolor="#ffc61c"
     bordercolor="#666666"
     borderopacity="1.0"
     inkscape:pageopacity="0"
     inkscape:pageshadow="2"
     inkscape:zoom="0.735"
     inkscape:cx="400"
     inkscape:cy="454.42177"
     inkscape:document-units="px"
     inkscape:current-layer="layer13"
     showgrid="false"
     showguides="true"
     inkscape:guide-bbox="true"
     inkscape:window-width="1432"
     inkscape:window-height="837"
     inkscape:window-x="0"
     inkscape:window-y="24"
     inkscape:window-maximized="1">
    <sodipodi:guide
       orientation="1,0"
       position="-105.59416,545.86814"
       id="guide3932" />
    <sodipodi:guide
       orientation="1,0"
       position="-125.28121,579.87304"
       id="guide3934" />
  </sodipodi:namedview>
  <metadata
     id="metadata7">
    <rdf:RDF>
      <cc:Work
         rdf:about="">
        <dc:format>image/svg+xml</dc:format>
        <dc:type
           rdf:resource="http://purl.org/dc/dcmitype/StillImage" />
        <dc:title></dc:title>
      </cc:Work>
    </rdf:RDF>
  </metadata>
  <g
     inkscape:groupmode="layer"
     id="layer11"
     inkscape:label="folder shadow"
     style="display:none"
     transform="translate(0,-252.36218)"
     sodipodi:insensitive="true">
    <path
       sodipodi:type="arc"
       style="fill:#000000;fill-opacity:1;stroke:none;filter:url(#filter4068)"
       id="path4038"
       sodipodi:cx="376.73849"
       sodipodi:cy="690.83643"
       sodipodi:rx="310.51843"
       sodipodi:ry="3.5794632"
       d="m 687.25693,690.83643 a 310.51843,3.5794632 0 1 1 -621.036868,0 310.51843,3.5794632 0 1 1 621.036868,0 z"
       transform="matrix(1.0027171,0,0,19.365269,-14.829056,-12977.109)" />
  </g>
  <g
     inkscape:groupmode="layer"
     id="layer12"
     inkscape:label="base shape shadow"
     transform="translate(0,-252.36218)"
     sodipodi:insensitive="true">
    <path
       sodipodi:nodetypes="cccccccccccsccc"
       id="path4072"
       d="m 83.4375,200.65625 c -6.957977,0 -12.5625,5.60452 -12.5625,12.5625 l 0,24.84375 c -0.117884,0.69374 -0.1875,1.42792 -0.1875,2.15625 l 7.858621,447.63331 c 0,6.95798 5.604523,12.5625 12.5625,12.5625 l 563.922629,-4.19581 c 6.95798,0 12.5625,-5.60452 12.5625,-12.5625 l 0,-443.4375 c 0,-6.95798 -5.60452,-12.5625 -12.5625,-12.5625 l -376,0 c -9.159,0.45126 -11.24762,-13.38892 -13.59375,-18.125 -0.0894,-0.18037 -0.19524,-0.29899 -0.34375,-0.34375 -1.67104,-4.97305 -6.35709,-8.53125 -11.90625,-8.53125 l -169.75,0 z"
       style="opacity:0.65938864;fill:#000000;fill-opacity:1;fill-rule:evenodd;stroke:none;display:inline;filter:url(#filter4084)"
       transform="matrix(1.1268936,0,0,1.090035,-32.55702,153.47017)" />
  </g>
  <g
     inkscape:groupmode="layer"
     id="layer2"
     inkscape:label="base shape"
     style="display:inline"
     transform="translate(0,-252.36218)"
     sodipodi:insensitive="true">
    <path
       style="fill:#bd9e79;fill-opacity:1;fill-rule:evenodd;stroke:#ffffff;stroke-width:1.11163521px;stroke-linecap:butt;stroke-linejoin:miter;stroke-opacity:0.51196169"
       d="m 67.605886,358.24712 c -7.955723,0 -14.363913,6.40818 -14.363913,14.36391 l 0,28.40625 c -0.134788,0.79322 -0.214386,1.63267 -0.214386,2.46544 l 0,507.02469 c 0,7.95573 6.408189,14.36391 14.363912,14.36391 l 653.772421,0 c 7.95573,0 14.36391,-6.40818 14.36391,-14.36391 l 0,-507.02469 c 0,-7.95572 -6.40818,-14.36391 -14.36391,-14.36391 l -429.91691,0 c -10.47237,0.51597 -12.86049,-15.30884 -15.54304,-20.72405 -0.10222,-0.20624 -0.22324,-0.34187 -0.39305,-0.39305 -1.91066,-5.68616 -7.26867,-9.75459 -13.61355,-9.75459 l -194.091484,0 z"
       id="rect2898"
       sodipodi:nodetypes="cccccccccccsccc" />
  </g>
  <g
     inkscape:groupmode="layer"
     id="layer7"
     inkscape:label="base shape inner gradient"
     transform="translate(0,-252.36218)"
     sodipodi:insensitive="true">
    <path
       sodipodi:nodetypes="cccccccccccsccc"
       id="path3836"
       d="m 91.315607,372.67445 c -6.253968,0 -11.291426,5.2922 -11.291426,11.86245 l 0,23.45929 c -0.105957,0.65507 -0.168529,1.34834 -0.168529,2.03609 l 0,418.72637 c 0,6.57024 5.037459,11.86243 11.291423,11.86243 l 513.928425,0 c 6.25397,0 11.29141,-5.29219 11.29141,-11.86243 l 48,-424.72637 c 0,-6.57023 -5.03744,-11.86243 -11.29141,-11.86243 l -385.95632,0 c -8.2323,0.42611 -10.1096,-6.64282 -12.21834,-11.11499 -0.0803,-0.1703 -0.17548,-0.2823 -0.30896,-0.32457 -1.50196,-4.69592 -5.71388,-8.05584 -10.70159,-8.05584 l -152.574683,0 z"
       style="fill:#cab193;fill-opacity:1;fill-rule:evenodd;stroke:none;display:inline;filter:url(#filter3920)"
       transform="matrix(1.143396,0,0,1.143396,-27.796222,-54.125814)" />
  </g>
  <g
     inkscape:groupmode="layer"
     id="layer4"
     inkscape:label="paper"
     style="display:inline"
     transform="translate(0,-252.36218)"
     sodipodi:insensitive="true">
    <path
       style="fill:#fdfdfd;fill-opacity:1;stroke:none"
       d="m 65.313706,407.12415 c -0.291088,-5.52932 2.339272,-7.31056 7.162303,-7.1623 l 659.954981,0 c 9.864,0.28356 8.63216,5.41475 11.25504,8.18548 L 719.12958,919.74034 57.670565,916.67079 65.313706,407.12415 z"
       id="path3706"
       sodipodi:nodetypes="ccccccc" />
  </g>
  <g
     inkscape:groupmode="layer"
     id="layer5"
     inkscape:label="top shape shadow"
     style="display:inline"
     transform="translate(0,-252.36218)"
     sodipodi:insensitive="true">
    <path
       sodipodi:nodetypes="ccccccccccccc"
       id="path3708"
       d="m 90.887771,280.93737 c 0.2196,-8.34375 2.00479,-10.26485 11.349249,-10.43257 l 173.28149,-4.44892 c 2.30453,0.0144 3.32519,0.0314 4.82224,-0.98923 l 12.51029,-10.21226 c 0.60589,-0.63872 1.77558,-1.11762 2.84446,-1.01391 l 370.28097,5.21874 c 8.6912,-0.0897 11.54243,3.6484 10.95442,9.90384 l -21.70092,397.78935 c -0.60941,5.13181 -5.64677,9.92083 -12.24973,9.70724 l -554.987184,7.43406 c -7.732734,0.15671 -12.17964,-6.30695 -12.558041,-10.09983 L 90.887771,280.93737 z"
       style="opacity:0.86462881;fill:#000000;fill-opacity:1;stroke:none;display:inline;filter:url(#filter3808)"
       transform="matrix(1.1292136,0,0,1.1499272,-23.963161,124.22671)" />
  </g>
  <g
     inkscape:groupmode="layer"
     id="layer3"
     inkscape:label="top shape"
     style="display:inline"
     transform="translate(0,-252.36218)"
     sodipodi:insensitive="true">
    <path
       style="fill:#b49167;fill-opacity:1;stroke:url(#linearGradient4102);stroke-width:1.14339602px;stroke-linecap:butt;stroke-linejoin:miter;stroke-opacity:0.35406704;display:inline"
       d="m 79.325929,433.08692 c 0.260135,-10.3784 2.374869,-12.76798 13.444286,-12.97659 l 190.241695,0 c 2.72994,0.018 3.93902,0.039 5.71242,-1.23045 l 14.81965,-12.70256 c 0.71774,-0.79448 2.10336,-1.39015 3.36955,-1.26116 l 440.78076,-0.14921 c 10.29557,-0.11159 13.67314,4.53807 12.97658,12.31892 l -23.70686,494.79165 c -0.7219,6.38321 -8.68916,14.34005 -16.51101,14.07437 l -652.069736,0.39279 c -9.16018,0.19494 -16.683077,-9.07959 -16.876227,-14.56271 L 79.325929,433.08692 z"
       id="path3680"
       sodipodi:nodetypes="ccccccccccccc" />
  </g>
  <g
     inkscape:groupmode="layer"
     id="layer6"
     inkscape:label="top shape inner gradient"
     style="display:inline"
     transform="translate(0,-252.36218)"
     sodipodi:insensitive="true">
    <path
       sodipodi:nodetypes="ccccccccccccc"
       id="path3812"
       d="m 122.98109,446.79474 c 0.20426,-8.14939 1.8648,-10.02575 10.5568,-10.18955 l 149.3827,0 c 2.14362,0.0141 3.09302,0.0306 4.48554,-0.96619 l 11.63677,-9.97438 c 0.56359,-0.62384 1.65161,-1.09158 2.64586,-0.99029 l 346.11246,-0.11716 c 8.08435,-0.0876 10.7365,3.56341 10.18955,9.67313 l -20.18569,388.52321 c -0.56686,5.01226 -5.25251,9.68973 -11.39443,9.48111 l -512.02203,0.30843 c -7.19281,0.15307 -11.32922,-6.16003 -11.6812,-9.86457 l 20.27367,-375.88374 z"
       style="opacity:0.47161572;fill:#cab193;fill-opacity:1;stroke:none;display:inline;filter:url(#filter3832)"
       transform="matrix(1.143396,0,0,1.143396,-27.796222,-54.125814)" />
  </g>
  <g
     inkscape:label="Layer 1"
     inkscape:groupmode="layer"
     id="layer1"
     style="display:none"
     sodipodi:insensitive="true"
     transform="translate(0,-252.36218)">
    <image
       y="193.85817"
       x="12.841057"
       id="image2886"
       height="142"
       width="720"
       xlink:href="file:///home/doli/Desktop/01_Home.jpg"
       style="fill:#9b916e;fill-opacity:1" />
  </g>
  <g
     inkscape:groupmode="layer"
     id="layer8"
     inkscape:label="dollar white shadow"
     style="display:inline"
     transform="translate(0,-252.36218)"
     sodipodi:insensitive="true">
    <path
       id="path3941"
       d="m 369.23921,309.25183 0,26.27068 c -41.16302,3.03698 -72.39269,25.24645 -72.39269,66.07678 0,48.27513 44.49325,71.85003 75.07729,94.9388 l -2.6846,65.67254 c -10.21823,-3.61089 -10.23414,-13.63844 -10.23414,-25.20105 l 0,-21.2773 -64.43864,-4 0,30.3788 c 0,43.52987 37.39306,63.42737 74.67278,63.42737 l 0,24.31113 21.47955,0 0,-24.31113 c 46.59966,-6.7488 75.88631,-30.01238 75.88631,-71.51759 0,-51.07263 -46.2981,-78.70181 -77.55221,-101.56972 l 1.34229,-52.02322 c 6.23018,4.08083 7.84752,11.78275 7.84752,19.6188 l 0,17.8794 64.4791,0 0,-13.19173 c 0,-20.58388 -4.27973,-37.13543 -14.76467,-48.94587 -10.48492,-11.47298 -32.38519,-18.5788 -57.23834,-20.26601 l 0,-26.27068 -21.47955,0 z m 0,71.01429 -0.20734,34.0216 -2.02982,2.84727 c -5.168,-5.82931 -8.29248,-11.74236 -8.29248,-18.1221 0,-7.1033 5.47045,-15.31692 10.52964,-18.74677 z m 21.60338,137.02834 c 4.41689,6.00969 7.52638,10.60374 7.52638,17.7077 0,10.07899 -3.08408,20.90334 -7.97382,25.02411 l -1.72508,-44.11778 2.17252,1.38597 z"
       style="font-size:300px;font-style:normal;font-variant:normal;font-weight:800;font-stretch:normal;fill:#ffffff;fill-opacity:1;stroke:none;filter:url(#filter3997);font-family:Helvetica Inserat LT Std;-inkscape-font-specification:Helvetica Inserat LT Std Ultra-Bold"
       sodipodi:nodetypes="ccsccccccccccscccccccccccccsccsccc"
       transform="matrix(1.143396,0,-0.05307459,1.143396,-2.89366,128.81755)" />
  </g>
  <g
     inkscape:groupmode="layer"
     id="layer9"
     inkscape:label="dollar"
     style="display:inline"
     transform="translate(0,-252.36218)"
     sodipodi:insensitive="true">
    <path
       style="font-size:300px;font-style:normal;font-variant:normal;font-weight:800;font-stretch:normal;fill:#b49167;fill-opacity:1;stroke:none;font-family:Helvetica Inserat LT Std;-inkscape-font-specification:Helvetica Inserat LT Std Ultra-Bold"
       d="m 402.98573,480.12808 -1.28816,27.751 c -47.22682,3.47247 -87.31293,31.66507 -89.47997,78.35031 -2.56219,55.1976 47.06,82.15304 80.80423,108.55265 l -3.35565,72.29134 C 378.17435,762.9447 378.68837,751.47924 379.30205,738.2586 l 1.12928,-24.32838 -73.67889,0 -1.61234,34.735 c -2.31033,49.77188 39.38871,72.5226 82.01419,72.5226 l -1.29031,27.79725 24.55963,0 1.29031,-27.79725 c 53.64005,-7.71655 88.361,-34.31603 90.56388,-81.77293 2.71064,-58.39624 -47.26157,-89.20456 -81.78369,-115.35164 l 2.79745,-60.26592 c 6.90696,4.66601 8.34746,13.47235 7.93156,22.43206 l -0.94895,20.44324 73.72515,0 0.91245,-19.65696 c 1.09248,-23.53553 -2.92248,-42.4605 -14.28408,-55.96451 -11.3795,-13.11816 -36.04304,-21.24293 -64.37049,-23.17208 l 1.28816,-27.751 -24.55963,0 z m -3.8752,83.48425 -1.85067,39.86893 c -5.59967,-6.66521 -8.85837,-13.42617 -8.51976,-20.72074 0.37701,-8.12188 4.40373,-15.22651 10.37043,-19.14819 z m 17.04678,153.87927 c 4.73129,6.87146 7.43627,14.17066 7.05922,22.2933 -0.53494,11.52428 -3.43517,20.07922 -9.24479,24.79089 l 2.18557,-47.08419 z"
       id="path3930" />
  </g>
  <g
     inkscape:groupmode="layer"
     id="layer13"
     inkscape:label="dollar inner blur"
     transform="translate(0,-252.36218)">
    <path
       id="path4088"
       d="m 377.15177,313.9863 0,24.4611 c -41.48598,3.06081 -75.66633,19.91117 -75.66633,61.06185 0,48.65389 44.84233,64.41375 75.66633,87.68367 l 0,77.72117 c -10.2984,1.72997 -26.31443,-3.69165 -26.31443,-23.39877 l 0,-21.44424 -48.94422,0 0,22.61715 c 0,43.8714 37.68644,55.92501 75.25865,55.92501 l 0,24.50187 5.64808,0 0,-24.50187 c 46.96527,-6.80175 76.4817,-22.24785 76.4817,-64.07871 0,-51.47334 -45.30852,-78.62932 -76.80785,-101.67665 l 0,-61.12136 c 13.43799,1.42825 23.90909,19.8752 23.90909,27.77273 l 0,10.01968 48.985,0 0,-9.32662 c 0,-20.74538 -4.31331,-37.42679 -14.88052,-49.32989 -10.56718,-11.563 -30.63928,-10.72457 -55.68742,-12.42502 l 0,-24.4611 -7.64808,0 z m 0,57.58715 0,51.14245 c -15.94693,-1.40072 -24.35754,-19.83449 -24.35754,-26.26429 0,-7.15903 13.88947,-22.31627 24.35754,-24.87816 z m 5.32193,135.63681 c 15.18993,-0.20722 23.13449,20.49071 23.13449,27.65041 0,10.15807 -8.36287,27.48855 -23.13449,29.85192 l 0,-57.50233 z"
       style="font-size:300px;font-style:normal;font-variant:normal;font-weight:800;font-stretch:normal;opacity:0.45851528;fill:#cab193;fill-opacity:1;stroke:none;display:inline;filter:url(#filter4092);font-family:Helvetica Inserat LT Std;-inkscape-font-specification:Helvetica Inserat LT Std Ultra-Bold"
       sodipodi:nodetypes="ccsccccccccccsccccccccccccsccscc"
       transform="matrix(1.143396,0,-0.05307459,1.143396,-2.89366,128.81755)" />
  </g>
  <g
     inkscape:groupmode="layer"
     id="layer10"
     inkscape:label="inner shadow"
     style="opacity:0.3802817"
     transform="translate(0,-252.36218)"
     sodipodi:insensitive="true">
    <path
       style="fill:none;stroke:#000000;stroke-width:1.14339602px;stroke-linecap:butt;stroke-linejoin:miter;stroke-opacity:1"
       d="m 427.4245,480.02616 -24.30066,0"
       id="path4023" />
    <path
       style="fill:none;stroke:#000000;stroke-width:1.14339602px;stroke-linecap:butt;stroke-linejoin:miter;stroke-opacity:1"
       d="m 402.07354,508.16376 c -76.47563,8.01152 -108.21869,71.37199 -80.13383,122.15729 13.34027,24.12294 51.41428,47.91533 70.64895,62.57921"
       id="path4025"
       sodipodi:nodetypes="csc" />
    <path
       style="fill:none;stroke:#000000;stroke-width:1.14339602px;stroke-linecap:butt;stroke-linejoin:miter;stroke-opacity:1"
       d="m 503.39077,606.88585 c 3.25315,-35.14895 -1.1438,-60.50963 -11.76792,-74.42551 -19.32901,-25.31789 -60.70895,-23.19755 -65.00473,-24.04077 l 0,0"
       id="path4027"
       sodipodi:nodetypes="cscc" />
    <path
       style="fill:none;stroke:#000000;stroke-width:1.14339602px;stroke-linecap:butt;stroke-linejoin:miter;stroke-opacity:1"
       d="m 380.1587,714.21379 -73.43544,0"
       id="path4031" />
    <path
       style="fill:none;stroke:#000000;stroke-width:1.14339602px;stroke-linecap:butt;stroke-linejoin:miter;stroke-opacity:1"
       d="m 415.78733,718.19306 c 14.074,12.86225 6.81007,40.87467 -2.21653,47.75112"
       id="path4033"
       sodipodi:nodetypes="cc" />
    <path
       style="fill:none;stroke:#000000;stroke-width:1.14339602px;stroke-linecap:butt;stroke-linejoin:miter;stroke-opacity:1"
       d="m 389.28311,767.02943 c -16.01795,-4.33974 -9.57256,-33.3947 -9.12441,-52.81564"
       id="path4035"
       sodipodi:nodetypes="cc" />
  </g>
</svg>
